<svg
  xmlns="http://www.w3.org/2000/svg"
  viewBox="0 0 512 512"
  role="img"
  aria-labelledby="icon-title icon-description"
>
  <title id="icon-title">잠깐 맡김소</title>
  <desc id="icon-description">
    파란 사물함 문에 생각을 적은 종이표가 꽂혀 있는 아이콘
  </desc>

  <rect width="512" height="512" fill="#F4F0E7" />

  <rect
    x="96"
    y="66"
    width="320"
    height="380"
    rx="44"
    fill="#315CFF"
    stroke="#171918"
    stroke-width="18"
  />
  <path
    d="M105 151h302"
    fill="none"
    stroke="#171918"
    stroke-width="18"
  />
  <circle cx="164" cy="109" r="12" fill="#F4F0E7" />
  <circle cx="204" cy="109" r="12" fill="#F4F0E7" />
  <circle cx="244" cy="109" r="12" fill="#F4F0E7" />

  <rect
    x="135"
    y="184"
    width="242"
    height="224"
    rx="24"
    fill="#F4F0E7"
    stroke="#171918"
    stroke-width="16"
  />
  <path
    d="M171 238h170"
    fill="none"
    stroke="#171918"
    stroke-linecap="round"
    stroke-width="18"
  />

  <g transform="rotate(-7 252 239)">
    <path
      d="M182 178h142a19 19 0 0 0 19 19v55a19 19 0 0 0-19 19H182a19 19 0 0 0-19-19v-55a19 19 0 0 0 19-19Z"
      fill="#F4F0E7"
      stroke="#171918"
      stroke-linejoin="round"
      stroke-width="14"
    />
    <path
      d="M207 216h92M207 239h62"
      fill="none"
      stroke="#315CFF"
      stroke-linecap="round"
      stroke-width="13"
    />
  </g>

  <rect x="326" y="307" width="18" height="58" rx="9" fill="#171918" />
  <circle
    cx="256"
    cy="427"
    r="9"
    fill="#F4F0E7"
    stroke="#171918"
    stroke-width="8"
  />
</svg>
